<?xml version="1.0" encoding="utf-8"?>
<!-- Generator: Adobe Illustrator 26.1.0, SVG Export Plug-In . SVG Version: 6.00 Build 0)  -->
<svg version="1.1" id="Layer_1" xmlns="http://www.w3.org/2000/svg" xmlns:xlink="http://www.w3.org/1999/xlink" x="0px" y="0px"
	 viewBox="0 0 144 144" style="enable-background:new 0 0 144 144;" xml:space="preserve">
<style type="text/css">
	.st0{fill:#044EF4;}
	.st1{fill:#F72A72;}
</style>
<path class="st0" d="M132.4,90.9c0,3.9-1.1,6.5-3.2,8.6c-12.7,12.6-25.3,25.3-38,37.9c-4.4,4.4-10.8,4.6-15.2,0.6
	c-4.6-4.2-4.8-11.2-0.3-15.7c5.7-5.8,11.5-11.6,17.3-17.3c6.9-6.9,13.9-13.8,20.9-20.7c3.4-3.3,7.9-4.2,12.1-2.3
	C130.2,83.8,132.3,87.2,132.4,90.9z"/>
<path class="st0" d="M11.6,51c0.1-2,1.1-4.5,3.2-6.5C27.4,31.9,40,19.3,52.6,6.7c2.6-2.6,5.7-4,9.4-3.4c4.4,0.6,7.4,3.1,8.9,7.3
	c1.4,4.2,0.4,8-2.7,11.2C62.2,27.9,56.1,33.9,50,40c-6.6,6.6-13.3,13.2-20,19.7c-3.4,3.3-7.9,4.1-12.1,2.3
	C14,60.3,11.5,56.4,11.6,51z"/>
<path class="st1" d="M20.3,65.4c1.4-0.1,2.6,0,3.8-0.2c3-0.4,5.6-1.7,7.8-3.9c2.4-2.5,4.9-4.9,7.3-7.5c0.5,0.4,0.8,0.6,1,0.9
	c9.3,9.3,18.7,18.7,28,28c3.1,3.1,4.1,6.8,2.9,11c-1.2,4-3.9,6.6-8,7.5c-3.5,0.8-6.9,0.1-9.5-2.5C42.5,87.7,31.5,76.7,20.3,65.4z"/>
<path class="st1" d="M123.8,78.8c-5.7-0.6-9.8,1.6-13.2,5.4c-1.9,2.1-3.9,3.9-5.9,6c-0.4-0.4-0.7-0.6-1-0.9
	c-9.3-9.3-18.7-18.7-28-28c-3.1-3.1-4.1-6.8-2.9-11c1.2-4,4-6.6,8.1-7.5c3.6-0.8,7,0,9.7,2.6c10.9,10.8,21.7,21.6,32.5,32.4
	C123.3,78,123.4,78.2,123.8,78.8z"/>
</svg>
